<svg xmlns="http://www.w3.org/2000/svg" viewBox="5447 4664.705 1403.592 330.795">
  <defs>
    <style>
      .cls-1 {
        fill: #e6b82e;
        font-size: 68px;
        font-family: FuturaMediumC;
      }

      .cls-2 {
        font-size: 18px;
        font-family: ProximaNova-Regular, Proxima Nova;
      }

      .cls-3, .cls-7 {
        fill: none;
      }

      .cls-3, .cls-4 {
        stroke: #e6b82e;
        stroke-width: 5px;
      }

      .cls-4 {
        fill: #fff;
      }

      .cls-5 {
        fill: #46443f;
      }

      .cls-6 {
        stroke: none;
      }
    </style>
  </defs>
  <g id="Group_213" data-name="Group 213" transform="translate(5143 -1752)">
    <text id="_1_" data-name="1
" class="cls-1" transform="translate(329 6652.5)"><tspan x="0" y="62">1</tspan></text>
    <text id="_2_" data-name="2
" class="cls-1" transform="translate(629.469 6652.5)"><tspan x="0" y="62">2</tspan></text>
    <text id="_3_" data-name="3
" class="cls-1" transform="translate(930.531 6652.5)"><tspan x="0" y="62">3</tspan></text>
    <text id="_4_" data-name="4
" class="cls-1" transform="translate(1229.531 6652.5)"><tspan x="0" y="62">4</tspan></text>
    <text id="_5_" data-name="5
" class="cls-1" transform="translate(1528.062 6652.5)"><tspan x="0" y="62">5</tspan></text>
    <text id="Оформление_заказа_и_замер" data-name="Оформление заказа и замер" class="cls-2" transform="translate(694.51 6664.5)"><tspan x="0" y="17">Оформление </tspan><tspan x="0" y="47">заказа и замер</tspan></text>
    <text id="Разработка_дизайн_проекта" data-name="Разработка дизайн проекта" class="cls-2" transform="translate(987.429 6664.5)"><tspan x="0" y="17">Разработка </tspan><tspan x="0" y="47">дизайн проекта</tspan></text>
    <text id="Монтаж_лестницы" data-name="Монтаж лестницы" class="cls-2" transform="translate(1590.592 6664.5)"><tspan x="0" y="17">Монтаж </tspan><tspan x="0" y="47">лестницы</tspan></text>
    <text id="Изготовление_всех_компонентов" data-name="Изготовление всех компонентов" class="cls-2" transform="translate(1296.062 6664.5)"><tspan x="0" y="17">Изготовление всех </tspan><tspan x="0" y="47">компонентов</tspan></text>
    <text id="Назначение_менеджера_проекта" data-name="Назначение менеджера проекта" class="cls-2" transform="translate(386.775 6664.5)"><tspan x="0" y="17">Назначение </tspan><tspan x="0" y="47">менеджера проекта</tspan></text>
    <g id="Group_100" data-name="Group 100" transform="translate(44.777 6005)">
      <line id="Line_8" data-name="Line 8" class="cls-3" x2="1194.122" transform="translate(307.468 612)"/>
      <g id="Ellipse_15" data-name="Ellipse 15" class="cls-4" transform="translate(587.753 597.5)">
        <circle class="cls-6" cx="15" cy="15" r="15"/>
        <circle class="cls-7" cx="15" cy="15" r="12.5"/>
      </g>
      <g id="Ellipse_16" data-name="Ellipse 16" class="cls-4" transform="translate(288.223 597.5)">
        <circle class="cls-6" cx="15" cy="15" r="15"/>
        <circle class="cls-7" cx="15" cy="15" r="12.5"/>
      </g>
      <g id="Ellipse_17" data-name="Ellipse 17" class="cls-4" transform="translate(889.284 597.5)">
        <circle class="cls-6" cx="15" cy="15" r="15"/>
        <circle class="cls-7" cx="15" cy="15" r="12.5"/>
      </g>
      <g id="Ellipse_18" data-name="Ellipse 18" class="cls-4" transform="translate(1187.814 597.5)">
        <circle class="cls-6" cx="15" cy="15" r="15"/>
        <circle class="cls-7" cx="15" cy="15" r="12.5"/>
      </g>
      <g id="Ellipse_19" data-name="Ellipse 19" class="cls-4" transform="translate(1486.345 597.5)">
        <circle class="cls-6" cx="15" cy="15" r="15"/>
        <circle class="cls-7" cx="15" cy="15" r="12.5"/>
      </g>
    </g>
    <g id="Group_43" data-name="Group 43" transform="translate(596.777 6425.469)">
      <g id="Group_35" data-name="Group 35">
        <path id="Path_22" data-name="Path 22" class="cls-5" d="M92.112,158.4H44.186a1.486,1.486,0,1,0,0,2.972H92.112a1.486,1.486,0,0,0,0-2.972Z" transform="translate(-29.201 -108.325)"/>
        <path id="Path_23" data-name="Path 23" class="cls-5" d="M60.034,23.552H75.4V85.166l4.394-.632V20.391L60.982,0H6.1A6.085,6.085,0,0,0,0,6.1v96.2a6.105,6.105,0,0,0,6.1,6.1H16.471v-4.394H6.1A1.7,1.7,0,0,1,4.394,102.3V6.1A1.7,1.7,0,0,1,6.1,4.394H57.852V21.371A2.186,2.186,0,0,0,60.034,23.552ZM62.215,7.808,72.679,19.189H62.215Z"/>
        <path id="Path_24" data-name="Path 24" class="cls-5" d="M92.112,113.4H44.186a1.486,1.486,0,1,0,0,2.972H92.112a1.486,1.486,0,1,0,0-2.972Z" transform="translate(-29.201 -77.551)"/>
        <path id="Path_25" data-name="Path 25" class="cls-5" d="M92.112,246.1H44.186a1.486,1.486,0,1,0,0,2.972H92.112a1.486,1.486,0,1,0,0-2.972Z" transform="translate(-29.201 -168.3)"/>
        <path id="Path_26" data-name="Path 26" class="cls-5" d="M92.112,201.8H44.186a1.486,1.486,0,1,0,0,2.972H92.112a1.484,1.484,0,0,0,1.486-1.486A1.5,1.5,0,0,0,92.112,201.8Z" transform="translate(-29.201 -138.004)"/>
      </g>
      <g id="Group_36" data-name="Group 36" transform="translate(15.143 81.057)">
        <path id="Path_27" data-name="Path 27" class="cls-5" d="M141.159,258.866A82.15,82.15,0,0,0,120.01,256.4c-3,0-5.975.126-8.82.379a1.666,1.666,0,1,0,.285,3.319c2.75-.253,5.627-.348,8.536-.348,17.862,0,27.6,4.3,27.6,6.512s-9.737,6.512-27.6,6.512-27.6-4.3-27.6-6.512c0-.727,1.77-3.035,9.863-4.805a1.668,1.668,0,0,0-.727-3.256c-5.69,1.265-12.519,3.667-12.519,8.093v12.614H59.818v-.632a2.685,2.685,0,0,0-2.687-2.687H50.587a2.685,2.685,0,0,0-2.687,2.687v26.049a2.685,2.685,0,0,0,2.687,2.687h6.576a2.685,2.685,0,0,0,2.687-2.687v-.632h9.041a1.676,1.676,0,0,0,0-3.351H59.818V282.26h3.636V291.3a1.676,1.676,0,0,0,3.351,0V282.26h3.319v3.7a1.676,1.676,0,1,0,3.351,0v-3.7h3.73v3.7a1.676,1.676,0,1,0,3.351,0v-3.7h3.73v3.7a1.676,1.676,0,1,0,3.351,0v-3.7h3.73V291.3a1.676,1.676,0,1,0,3.351,0V282.26h3.73v3.7a1.676,1.676,0,1,0,3.351,0v-3.7h3.73v3.7a1.676,1.676,0,1,0,3.351,0v-3.7h3.73v3.7a1.676,1.676,0,1,0,3.351,0v-3.7h3.73V291.3a1.676,1.676,0,1,0,3.351,0V282.26c.632,0,2.972,0,3.73-.032v3.73a1.675,1.675,0,1,0,3.351,0V281.88a28.979,28.979,0,0,0,3.73-.822v2.213a1.675,1.675,0,1,0,3.351,0v-3.383a27.566,27.566,0,0,0,3.73-1.9v1.992a1.676,1.676,0,1,0,3.351,0v-4.331a29.011,29.011,0,0,0,3.225-3c0,5.627,0,12.108-.095,13.689a13.368,13.368,0,0,1-6.07,10.369c-3.161,2.15-8.63,3.667-13.246,3.667H78.47a1.676,1.676,0,1,0,0,3.351H128.1c4.426,0,10.812-1.3,15.143-4.236a16.954,16.954,0,0,0,7.524-12.93c.126-1.992.19-20.074.19-20.233C150.959,263.2,147.672,260.7,141.159,258.866Zm.253,14.763a26.886,26.886,0,0,1-16,5.279h-33V271.1a25.832,25.832,0,0,0,6.449,2.624,82.149,82.149,0,0,0,21.149,2.466,82.149,82.149,0,0,0,21.149-2.466A.42.42,0,0,1,141.412,273.629Zm-84.945,5.279v24.753H51.251V278.909Z" transform="translate(-47.9 -256.4)"/>
        <path id="Path_28" data-name="Path 28" class="cls-5" d="M234.895,280.352a36.936,36.936,0,0,0,9.579,1.106,38.36,38.36,0,0,0,9.579-1.106c3.319-.917,4.995-2.339,4.995-4.173s-1.676-3.225-4.995-4.173a36.936,36.936,0,0,0-9.579-1.106,38.36,38.36,0,0,0-9.579,1.106c-3.319.917-4.995,2.339-4.995,4.173S231.576,279.436,234.895,280.352Zm-1.423-4.141a9.123,9.123,0,0,1,3-1.138,35.365,35.365,0,0,1,8-.822c5.817,0,9.8,1.075,11,1.928a9.124,9.124,0,0,1-3,1.138,35.363,35.363,0,0,1-8,.822C238.657,278.139,234.642,277.033,233.472,276.211Z" transform="translate(-172.364 -266.316)"/>
      </g>
    </g>
    <g id="Group_44" data-name="Group 44" transform="translate(885 6435.5)">
      <path id="Path_29" data-name="Path 29" class="cls-5" d="M95.993,62.241v-27.2h28.088v27.2ZM3.861,7.322A3.473,3.473,0,0,1,7.322,3.861H92.131v3.6a1.945,1.945,0,1,0,3.89,0V3.976h24.742a3.351,3.351,0,0,1,3.347,3.347V31.178H96.021V15.36a1.945,1.945,0,1,0-3.89,0V62.212H3.861V7.322ZM75.942,99.54H52V89.3H75.942V99.54Zm9.1,7.637H42.905a5.738,5.738,0,0,1,5.377-3.776H79.66a5.738,5.738,0,0,1,5.377,3.776ZM120.735,0H7.322A7.337,7.337,0,0,0,0,7.322V64.157H0v17.82A7.337,7.337,0,0,0,7.322,89.3H18.85a1.945,1.945,0,1,0,0-3.89H7.322a3.473,3.473,0,0,1-3.461-3.461h0V66.074h120.22V81.949a3.473,3.473,0,0,1-3.461,3.461H27.6a1.945,1.945,0,1,0,0,3.89H48.139V99.54a9.585,9.585,0,0,0-9.411,9.582,1.947,1.947,0,0,0,1.945,1.945H87.326a1.947,1.947,0,0,0,1.945-1.945,9.585,9.585,0,0,0-9.411-9.582V89.3h40.817A7.337,7.337,0,0,0,128,81.977V7.208A7.3,7.3,0,0,0,120.735,0Z"/>
      <path id="Path_30" data-name="Path 30" class="cls-5" d="M210.761,250.335a1.974,1.974,0,1,1,1.974,1.974,1.978,1.978,0,0,1-1.974-1.974Zm7.809,0a5.835,5.835,0,1,0-5.835,5.835,5.841,5.841,0,0,0,5.835-5.835Z" transform="translate(-147.72 -174.565)"/>
      <path id="Path_31" data-name="Path 31" class="cls-5" d="M348.245,43.99h5.32a1.945,1.945,0,0,0,0-3.89h-5.32a1.945,1.945,0,0,0,0,3.89Z" transform="translate(-247.247 -28.63)"/>
      <path id="Path_32" data-name="Path 32" class="cls-5" d="M391.445,43.99h5.32a1.945,1.945,0,0,0,0-3.89h-5.32a1.945,1.945,0,0,0,0,3.89Z" transform="translate(-278.09 -28.63)"/>
      <path id="Path_33" data-name="Path 33" class="cls-5" d="M348.245,72.99h5.32a1.945,1.945,0,0,0,0-3.89h-5.32a1.945,1.945,0,0,0,0,3.89Z" transform="translate(-247.247 -49.335)"/>
      <path id="Path_34" data-name="Path 34" class="cls-5" d="M365.35,147.4h-17.1a1.945,1.945,0,0,0,0,3.89h17.1a1.945,1.945,0,1,0,0-3.89Z" transform="translate(-247.247 -105.239)"/>
      <path id="Path_35" data-name="Path 35" class="cls-5" d="M365.35,179.2h-17.1a1.945,1.945,0,0,0,0,3.89h17.1a1.945,1.945,0,1,0,0-3.89Z" transform="translate(-247.247 -127.943)"/>
      <path id="Path_36" data-name="Path 36" class="cls-5" d="M391.445,72.99h5.32a1.945,1.945,0,0,0,0-3.89h-5.32a1.945,1.945,0,0,0,0,3.89Z" transform="translate(-278.09 -49.335)"/>
      <path id="Path_37" data-name="Path 37" class="cls-5" d="M28.645,22.6A1.945,1.945,0,1,1,26.7,24.545,1.947,1.947,0,0,1,28.645,22.6Z" transform="translate(-19.063 -16.136)"/>
      <path id="Path_38" data-name="Path 38" class="cls-5" d="M54.845,22.6A1.945,1.945,0,1,1,52.9,24.545,1.947,1.947,0,0,1,54.845,22.6Z" transform="translate(-37.769 -16.136)"/>
      <path id="Path_39" data-name="Path 39" class="cls-5" d="M79.845,22.6A1.945,1.945,0,1,1,77.9,24.545,1.947,1.947,0,0,1,79.845,22.6Z" transform="translate(-55.618 -16.136)"/>
      <path id="Path_40" data-name="Path 40" class="cls-5" d="M120.316,55.671h.658v12.5h-.658a3,3,0,0,0-3,3v.658H104.384v-.658a3,3,0,0,0-3-3h-.229v-12.5h.229a3,3,0,0,0,3-3V52.01h12.929v.658a3,3,0,0,0,3,3Zm.858-7.322h3.461v3.461h-3.461V48.348Zm3.461,27.145h-3.461V72.032h3.461v3.461Zm-24.141,0H97.033V72.032h3.461v3.461ZM97.033,48.348h3.461v3.461H97.033V48.348ZM124.492,30.7a18.131,18.131,0,0,0-18.106,17.448h-2V47.49a3,3,0,0,0-3-3H96.2a3,3,0,0,0-3,3v5.177a3,3,0,0,0,3,3H97.29v12.5H96.2a3,3,0,0,0-3,3v5.177a3,3,0,0,0,3,3h5.177a3,3,0,0,0,3-3v-.658h12.929v.658a3,3,0,0,0,3,3h5.177a3,3,0,0,0,3-3V71.174a3,3,0,0,0-3-3h-.658v-1.2a18.46,18.46,0,0,0,3.547-.4,1.93,1.93,0,0,0-.8-3.776,14.387,14.387,0,0,1-2.717.315V55.671h.658a3,3,0,0,0,3-3V47.49a3,3,0,0,0-3-3h-5.206a3,3,0,0,0-3,3v.658h-7.065a14.267,14.267,0,1,1,23.283,11.727,1.931,1.931,0,0,0,1.2,3.432,2.011,2.011,0,0,0,1.23-.429A18.133,18.133,0,0,0,124.492,30.7Z" transform="translate(-66.542 -21.919)"/>
    </g>
    <g id="Group_45" data-name="Group 45" transform="translate(304 6425.5)">
      <g id="Group_39" data-name="Group 39">
        <path id="Path_41" data-name="Path 41" class="cls-5" d="M82.6,249.483A1.513,1.513,0,0,0,81.2,248.6H44.562a1.534,1.534,0,0,0-1.145.491,1.55,1.55,0,0,0-.425,1.178,1.609,1.609,0,0,0,1.636,1.439h36.5c.2,0,.556,0,1.014-.033l-.1-.2.262-.327A1.445,1.445,0,0,0,82.6,249.483Z" transform="translate(-28.926 -167.282)"/>
        <path id="Path_42" data-name="Path 42" class="cls-5" d="M83.411,69.837V21.327L63.753,0H6.379A6.366,6.366,0,0,0,0,6.379V106.93a6.387,6.387,0,0,0,6.379,6.379H51.192a31.841,31.841,0,0,1-1.014-4.579H6.379a1.766,1.766,0,0,1-1.766-1.8V6.379A1.759,1.759,0,0,1,6.379,4.612h54.1V22.374a2.3,2.3,0,0,0,2.29,2.29H78.8V69.837A27.146,27.146,0,0,1,83.411,69.837ZM65.061,20.051V8.178L75.986,20.051Z"/>
        <path id="Path_43" data-name="Path 43" class="cls-5" d="M44.67,160a1.57,1.57,0,1,0,0,3.14H94.782a1.57,1.57,0,0,0,0-3.14Z" transform="translate(-29.002 -107.663)"/>
        <path id="Path_44" data-name="Path 44" class="cls-5" d="M44.67,203.9a1.57,1.57,0,0,0,0,3.14H94.782a1.57,1.57,0,1,0,0-3.14Z" transform="translate(-29.002 -137.204)"/>
        <path id="Path_45" data-name="Path 45" class="cls-5" d="M44.67,114.6a1.57,1.57,0,0,0,0,3.14H94.782a1.57,1.57,0,0,0,0-3.14Z" transform="translate(-29.002 -77.114)"/>
      </g>
      <g id="Group_40" data-name="Group 40" transform="translate(46.252 67.776)">
        <path id="Path_46" data-name="Path 46" class="cls-5" d="M150.657,261.139a31.513,31.513,0,1,0-6.771-10.042,31.1,31.1,0,0,0,6.771,10.042Zm22.308-49.295A26.953,26.953,0,1,1,146.012,238.8a26.957,26.957,0,0,1,26.953-26.953Zm0,0" transform="translate(-141.4 -207.2)"/>
        <path id="Path_47" data-name="Path 47" class="cls-5" d="M196.615,290.282a2.329,2.329,0,0,0,1.636.687,2.2,2.2,0,0,0,1.636-.687l19.724-19.724a2.313,2.313,0,1,0-3.271-3.271l-18.122,18.089-7.36-7.393a2.313,2.313,0,1,0-3.271,3.271Zm0,0" transform="translate(-172.017 -247.17)"/>
        <path id="Path_48" data-name="Path 48" class="cls-5" d="M196.615,290.282a2.329,2.329,0,0,0,1.636.687,2.2,2.2,0,0,0,1.636-.687l19.724-19.724a2.313,2.313,0,1,0-3.271-3.271l-18.122,18.089-7.36-7.393a2.313,2.313,0,1,0-3.271,3.271Zm0,0" transform="translate(-172.017 -247.17)"/>
      </g>
    </g>
    <g id="Group_46" data-name="Group 46" transform="translate(1151.648 6431.229)">
      <path id="Path_49" data-name="Path 49" class="cls-5" d="M191.121,79.829,168.828,66.9a2.041,2.041,0,0,0-.955-.255h-4.841a64.706,64.706,0,0,0-22.421-47.1V15.687a14.572,14.572,0,0,0-25.447-9.714A64.969,64.969,0,0,0,98.188,3.712C96.182,3.712,23.5,4,23.5,4a5.351,5.351,0,0,0-.127,10.7L6.943,51.548H5.351a5.351,5.351,0,0,0,0,10.7H33.6c-.127,1.465-.223,2.93-.287,4.427H25.988a1.95,1.95,0,0,0-1.847,1.369l-3.79,12.994A1.928,1.928,0,0,0,22.2,83.491H44.046a5.887,5.887,0,0,0,.287,2.58c1.21,3.726,4.2,3.885,5.987,3.981,1.688.1,2.42.191,3.026,1.369s.255,1.815-.669,3.249c-.987,1.5-2.612,4.013-.318,7.2,2.293,3.153,5.191,2.389,6.943,1.943,1.624-.446,2.357-.573,3.28.382.955.955.8,1.656.382,3.28-.478,1.72-1.242,4.618,1.943,6.943,3.153,2.293,5.7.669,7.2-.287,1.433-.924,2.038-1.274,3.249-.669,1.178.605,1.274,1.306,1.369,3.026.1,1.784.255,4.777,3.981,5.987s5.605-1.115,6.752-2.516c1.083-1.306,1.561-1.847,2.866-1.624,1.338.223,1.624.86,2.229,2.452.637,1.656,1.72,4.459,5.637,4.459s5-2.8,5.637-4.459c.605-1.592.924-2.229,2.229-2.452s1.815.318,2.866,1.624c1.115,1.4,3.026,3.726,6.752,2.516s3.885-4.2,3.981-5.987c.1-1.688.191-2.389,1.369-3.026,1.178-.605,1.815-.255,3.249.669,1.5.987,4.013,2.612,7.2.318,3.153-2.293,2.389-5.191,1.943-6.943-.446-1.624-.573-2.357.35-3.28.955-.955,1.656-.8,3.28-.382,1.72.446,4.618,1.242,6.943-1.943,2.293-3.153.669-5.669-.318-7.2-.924-1.433-1.274-2.038-.669-3.249.605-1.178,1.306-1.274,3.026-1.369,1.784-.1,4.777-.255,5.987-3.981a5.887,5.887,0,0,0,.287-2.58h37.995a1.917,1.917,0,0,0,1.911-1.911,1.979,1.979,0,0,0-1.083-1.784ZM125.992,4.954a10.738,10.738,0,0,1,10.733,10.733v.764a65.612,65.612,0,0,0-17.421-9.2,10.964,10.964,0,0,1,6.688-2.293ZM21.975,9.317a1.5,1.5,0,0,1,1.5-1.5H75.385a61.183,61.183,0,0,0-6.752,2.994H23.472a1.5,1.5,0,0,1-1.5-1.5ZM35.543,51.548H29.619l16.4-36.88H62.1a65.248,65.248,0,0,0-26.561,36.88ZM18.281,35.56H32.517l-3.089,6.911H15.192Zm4.777-10.733H37.294l-3.057,6.879H20Zm18.759-10.16-2.8,6.306H24.778l2.8-6.306ZM13.5,46.325H27.74l-2.325,5.255H11.147ZM5.351,58.4a1.5,1.5,0,0,1,0-2.994H34.619c-.191.987-.382,1.975-.541,2.994ZM98.156,7.565a61.081,61.081,0,0,1,60.989,59.11H142.139a38.585,38.585,0,0,0-77.073,0h-27.9A61.06,61.06,0,0,1,98.156,7.565Zm9.491,59.11a9.681,9.681,0,0,0-18.982,0H68.92a34.735,34.735,0,0,1,69.365,0Zm-3.981,0H92.647a5.833,5.833,0,0,1,11.02,0Zm44.651,18.217c-.382,1.115-.7,1.242-2.548,1.338-1.815.1-4.586.255-6.242,3.471-1.624,3.217-.127,5.542.86,7.07,1.019,1.561,1.115,1.879.414,2.834s-1.051.955-2.834.478-4.459-1.178-7.007,1.369-1.847,5.223-1.369,7.007.478,2.134-.478,2.834-1.274.573-2.834-.414c-1.529-.987-3.854-2.516-7.07-.86-3.217,1.624-3.376,4.4-3.471,6.242s-.191,2.166-1.338,2.548c-1.115.35-1.4.159-2.58-1.274-1.147-1.433-2.9-3.567-6.465-2.994s-4.554,3.153-5.223,4.873-.86,2.006-2.038,2.006-1.369-.287-2.038-2.006-1.656-4.3-5.223-4.873-5.319,1.592-6.465,2.994c-1.178,1.433-1.433,1.656-2.58,1.274s-1.242-.7-1.338-2.548c-.1-1.815-.255-4.586-3.471-6.242-3.217-1.624-5.542-.127-7.07.86-1.561,1.019-1.879,1.115-2.834.414s-.955-1.051-.478-2.834,1.178-4.459-1.369-7.007S60,99.607,58.219,100.084s-2.134.478-2.834-.478-.573-1.274.414-2.834c.987-1.529,2.516-3.854.86-7.07-1.624-3.217-4.4-3.376-6.242-3.471s-2.166-.191-2.548-1.338a1.5,1.5,0,0,1,.032-1.4H148.158c.35.35.382.732.159,1.4ZM24.746,79.638l2.675-9.14H167.331l15.765,9.14Zm0,0"/>
      <path id="Path_50" data-name="Path 50" class="cls-5" d="M154.726,125.289a2.052,2.052,0,0,0-.35-1.656,1.872,1.872,0,0,0-1.529-.733H139.694a1.926,1.926,0,0,0-1.815,1.274l-6.4,18.281A1.917,1.917,0,0,0,133.292,145h15.064a1.941,1.941,0,0,0,1.879-1.465Zm-7.867,15.892H136l5.064-14.427h9.332Zm0,0" transform="translate(-89.533 -83.009)"/>
    </g>
    <path id="Path_52" data-name="Path 52" class="cls-5" d="M90.031,90.444,72.189,86.479V80.668l.068-.034A27.158,27.158,0,0,0,83.5,58.724V46.556l.034-.034a9.848,9.848,0,0,0,1.265-1.5l.034-.068h9.946v-4.2H90.236V36.029A33.845,33.845,0,0,0,62.892,2.908l-.1-.034-.034-.1A4.352,4.352,0,0,0,58.688-.1H54.142a4.352,4.352,0,0,0-4.067,2.871l-.034.1-.1.034A33.812,33.812,0,0,0,22.593,36.029v4.717H18.116v4.2h9.946l.034.068a9.847,9.847,0,0,0,1.265,1.5l.034.034V58.724A27.158,27.158,0,0,0,40.64,80.634l.068.034v5.811L22.867,90.444A29.144,29.144,0,0,0,0,119.052v21.089H113V119.052A29.129,29.129,0,0,0,90.031,90.444ZM22.662,135.937H4.2V119.052A24.863,24.863,0,0,1,22.456,94.921l.205-.068Zm51.1-44.81-8.75,11.655-6.494-6.494,11.861-5.913ZM56.5,92.631l-.068-.034L45.015,86.889v-3.76l.239.1a26.588,26.588,0,0,0,22.491,0l.239-.1v3.726l-.1.034ZM63.131,7.18l.205.034a29.914,29.914,0,0,1,22.8,28.814v4.717H82.409l-.581,1.162a6.111,6.111,0,0,1-5.469,3.384H63.131V7.18ZM54.039,4.138h4.888V45.291H54.039ZM31.172,41.908l-.581-1.162H26.866V36.029a29.877,29.877,0,0,1,22.8-28.814l.205-.034V45.257H36.641A6.065,6.065,0,0,1,31.172,41.908Zm2.5,7.109.205.068a11.019,11.019,0,0,0,2.769.376H76.359a11.233,11.233,0,0,0,2.769-.376l.205-.068v8.374l-3.11,1.572a20.453,20.453,0,0,1-9.194,2.188H63.3a1.025,1.025,0,0,1-.991-.718l-.82-2.5a5.213,5.213,0,0,0-4.956-3.589,5.288,5.288,0,0,0-4.99,3.589l-.82,2.5a1.025,1.025,0,0,1-.991.718H46.007a20.453,20.453,0,0,1-9.194-2.188L33.7,57.391V49.017Zm.342,13.535-.068-.342.957.479a24.87,24.87,0,0,0,11.074,2.6H49.7a5.288,5.288,0,0,0,4.99-3.589l.82-2.5a.981.981,0,0,1,.991-.649h0a1.025,1.025,0,0,1,.991.649l.82,2.5a5.213,5.213,0,0,0,4.956,3.589h3.726a24.87,24.87,0,0,0,11.074-2.6l.957-.479-.068.342a22.8,22.8,0,0,1-44.947,0Zm8.613,27.823,11.861,5.913-6.494,6.494-.1-.171L39.273,91.093Zm11.758,45.562H26.866V131.05H54.415v4.888Zm0-9.092H26.866V93.862l7.9-1.743.068.1,19.585,26.114v8.511Zm-3.862-20.679,5.982-5.982,5.982,5.982L56.5,114.13Zm35.616,29.771H58.585V131.05H86.134Zm0-9.092H58.585V118.3L78.239,92.084l7.9,1.743Zm22.662,9.092H90.338V94.853l.205.068A24.863,24.863,0,0,1,108.8,119.052Z" transform="translate(1490 6416.805)"/>
  </g>
</svg>
