<svg xmlns="http://www.w3.org/2000/svg" viewBox="7650 -261.036 94.94 25">
  <defs>
    <style>
      .cls-1 {
        font-size: 24px;
        font-family: FontAwesome5FreeSolid, "Font Awesome 5 Free Solid";
      }
    </style>
  </defs>
  <g id="Button_Back" data-name="Button Back" transform="translate(7563 -316)">
    <path id="Path_131" data-name="Path 131" d="M3.64-13.34H1.6V0H3.64V-6.14H9.36V0H11.4V-13.34H9.36v5.28H3.64ZM23.84,0h2.2L19.72-14.12,13.08,0h2.2l1.46-3.22h5.7ZM17.58-5.14l2.06-4.52,1.98,4.52Zm10.86-5.18a3.72,3.72,0,0,1,1.1-.98,2.989,2.989,0,0,1,1.62-.38,2.451,2.451,0,0,1,1.54.4,1.69,1.69,0,0,1,.64,1.38,1.778,1.778,0,0,1-.6,1.36A3.3,3.3,0,0,1,30.82-8H29.74v1.92h1.2a4.2,4.2,0,0,1,2.42.52A1.737,1.737,0,0,1,34.14-4a2.324,2.324,0,0,1-.64,1.64,2.868,2.868,0,0,1-2.04.72,3.614,3.614,0,0,1-2.2-.62,3.441,3.441,0,0,1-1.24-1.62l-1.8.92A5.926,5.926,0,0,0,27.92-.8,5.087,5.087,0,0,0,31.2.24,5.437,5.437,0,0,0,34.8-.92,3.776,3.776,0,0,0,36.14-3.9a3.446,3.446,0,0,0-.68-2.26,3.354,3.354,0,0,0-1.8-1.18,3.132,3.132,0,0,0,1.2-1.16,2.922,2.922,0,0,0,.44-1.66,3.091,3.091,0,0,0-.96-2.34,4.256,4.256,0,0,0-3.1-1.06,5.215,5.215,0,0,0-2.42.5,4.744,4.744,0,0,0-1.72,1.44ZM47.52,0h2.2L43.4-14.12,36.76,0h2.2l1.46-3.22h5.7ZM41.26-5.14l2.06-4.52L45.3-5.14Zm11.84-8.2v6.12a9.466,9.466,0,0,1-.48,3.5,2.44,2.44,0,0,1-2.12,1.8V3h1.92V0h8.6V3h1.92V-1.92H61.42V-13.34Zm2.04,1.92h4.24v9.5H53.64A4.09,4.09,0,0,0,54.68-3.5a10.579,10.579,0,0,0,.46-3.72Z" transform="translate(119 74.964)"/>
    <text id="_" data-name="" class="cls-1" transform="translate(87 76.964)"><tspan x="0" y="0"></tspan></text>
  </g>
</svg>
