<svg xmlns="http://www.w3.org/2000/svg" viewBox="389.406 7395.822 136.594 82.935">
  <defs>
    <style>
      .cls-1 {
        fill: #e6b82e;
        fill-rule: evenodd;
      }
    </style>
  </defs>
  <path id="icon_3" data-name="icon 3" class="cls-1" d="M11241.088,15094.894a6.769,6.769,0,1,0,6.707,6.769,1.921,1.921,0,1,0-3.842,0,2.9,2.9,0,1,1-2.865-2.927,1.92,1.92,0,0,0,0-3.841Zm88.6,0a6.769,6.769,0,1,0,6.707,6.769,1.922,1.922,0,0,0-3.844,0,2.9,2.9,0,1,1-2.863-2.927,1.92,1.92,0,0,0,0-3.841Zm14.086,8.72h7.865a1.962,1.962,0,0,0,1.951-1.952v-32.806a2.863,2.863,0,0,0-.244-.976l-9.451-15.977c-3.109-5.245-6.037-8.354-11.951-8.9h-.123a1.2,1.2,0,0,0-.488-.062h-19.391v-5.549a4.371,4.371,0,0,0-4.391-4.393l-86.164,0a4.371,4.371,0,0,0-4.391,4.39v61.773a4.424,4.424,0,0,0,4.391,4.451h5.549l.121.427a14.181,14.181,0,0,0,27.99,0l.123-.427h60.43l.063.427a14.216,14.216,0,0,0,28.049,0Zm-102.691,8.478a10.428,10.428,0,1,1,10.367-10.429,10.431,10.431,0,0,1-10.367,10.429Zm67.018-12.38h-52.93l-.123-.427a14.181,14.181,0,0,0-27.99,0l-.121.427h-6.1v-62.869h87.26v62.869Zm41.648-19.7h-5.854v-2.926a2.994,2.994,0,0,1,2.988-2.988h2.865Zm-9.025-25.976.063.122,7.865,13.415h-23.6c-.123,0-.246-.061-.428-.061a3.058,3.058,0,0,1-3.049-3.049v-10.427h19.146Zm-25.123,45.674h-3.658v-52.93h18.109c3.232,0,5.367.73,7.2,2.5l.975.914h-18.537a1.965,1.965,0,0,0-1.953,1.95v12.319a6.913,6.913,0,0,0,6.344,6.89h.061a1.909,1.909,0,0,0,.486.121h18.174l-.855.854a6.893,6.893,0,0,0-1.889,4.757v4.878a1.9,1.9,0,0,0,1.889,1.891h7.807v15.855h-5.672v-.3h-.365v-.122a14.217,14.217,0,0,0-28.051,0Zm14.086,12.379a10.427,10.427,0,1,1,10.367-10.428,10.429,10.429,0,0,1-10.367,10.428Zm-29.574-69.151h-71.285a1.921,1.921,0,0,0,0,3.843h71.287a1.921,1.921,0,1,0,0-3.842Z" transform="translate(-10827.594 -7637.176)"/>
</svg>
