<svg xmlns="http://www.w3.org/2000/svg" viewBox="-177.768 7388.278 149.768 100.977">
  <defs>
    <style>
      .cls-1 {
        fill: #e6b82e;
        fill-rule: evenodd;
      }
    </style>
  </defs>
  <path id="icon_1" data-name="icon 1" class="cls-1" d="M9907.33,15041.62a2.379,2.379,0,1,1-2.376-2.3,2.339,2.339,0,0,1,2.376,2.3Zm61.311,34.877a2.215,2.215,0,0,1-.681,1.634,2.364,2.364,0,0,1-1.687.658,2.293,2.293,0,1,1,0-4.584,2.367,2.367,0,0,1,1.688.657A2.219,2.219,0,0,1,9968.641,15076.5Zm4.8-26.886a2.318,2.318,0,0,1-1.467,2.171,2.457,2.457,0,0,1-2.63-.5,2.269,2.269,0,0,1-.515-2.546,2.462,2.462,0,0,1,3.919-.751A2.251,2.251,0,0,1,9973.44,15049.611Zm-28.1,24.346a2.3,2.3,0,0,1-1.461,2.133,2.436,2.436,0,0,1-2.595-.493,2.25,2.25,0,0,1-.519-2.511,2.392,2.392,0,0,1,4.575.871Zm-50.971-9.664A2.376,2.376,0,1,1,9892,15062a2.363,2.363,0,0,1,2.374,2.292Zm105.567-24.9c-1.665-2.293-4.8-1.859-7.745-1.426-3.456.435-5.952.62-7.1-.929-.255-.991.641-4.585,1.28-6.938,1.472-5.7,2.688-10.593,0-12.886-1.344-1.115-3.2-1.238-5.5-.31a1.974,1.974,0,0,0-1.28,1.363c-.448,1.549.449,2.911,1.024,3.778h0a2.021,2.021,0,0,1-1.215.185c-.578-.433-1.154-2.229-.578-8.547.191-1.982.32-2.727-.128-3.469a2.7,2.7,0,0,0-3.264-1.426c-.9.311-2.624.868-5.761,10.222a82.846,82.846,0,0,0-2.3,8.8,31.015,31.015,0,0,0-6.336,1.364,23.576,23.576,0,0,1-8,1.3,19.534,19.534,0,0,0-9.915-13.631,20.748,20.748,0,0,0-17.176-1.237c-.021-.31-.033-.558-.054-.8-.2-3.159-.556-8.549-5.816-8.8a2.331,2.331,0,0,0-1.542.558,14.8,14.8,0,0,0-3.213,3.778c-.724.434-2.811,1.363-4.666,2.229-9.8,4.4-28.047,12.576-31.273,23.851a2.119,2.119,0,0,0-.077.682,47.518,47.518,0,0,1-8.409,5.142.9.9,0,0,0-.4-.061,2.2,2.2,0,0,0-1.6.445,2.068,2.068,0,0,0-.8,1.412h0a2.734,2.734,0,0,0,1.184,2.6c-7.987,6.318-10.451,9.105-10.074,11.4a2.711,2.711,0,0,0,1.868,2.107,2.294,2.294,0,0,0,1.44.061c1.467-.5,2.971-.93,4.474-1.3h0c.161,1.178-1.676,3.717-2.623,4.585a2.071,2.071,0,0,0-1.216,1.858h0a4.422,4.422,0,0,0,1.323,3.47,1.861,1.861,0,0,0,.481.31c-.115.124-.23.247-.352.371a27.872,27.872,0,0,1-3.5.868c-3.577.8-5.484,1.239-6.348,2.539-.5.682-1.006,1.363-1.453,1.92-1.5,1.982-2.8,3.656-2.073,5.7.754,2.105,3.334,3.158,7.539,4.274.557.124.557.124,3.437-.558,3.169-.744,9.051-2.229,12.456-2.912a13.764,13.764,0,0,0,3.859,1.858,20.226,20.226,0,0,0,6.355,1.239,8.6,8.6,0,0,0,6.739-3.655c1.1-1.3,1.806-2.168,4.729-1.8.391.434.89.867,1.46,1.425,1.062.99,2.534,2.292,4.141,3.655,1.434,1.239,6.24,5.327,7.949,6.194h0a1.931,1.931,0,0,0,.537.247c1.421.436,9.5,3.471,11.585,4.462a2.365,2.365,0,0,0,1.913.743,19.556,19.556,0,0,0,10.567-4.708c2.688-2.044,4.807-3.654,10.119-3.593,1.831.062,3.366,1.8,4.839,3.47,1.407,1.549,2.752,3.035,4.543,3.531,2.5.681,4.353-.806,5.89-2.045,1.6-1.238,2.431-1.858,3.327-1.61.769.248,9.921,3.159,13.57,4.4-.064,3.1.255,9.478,3.647,11.336a3.968,3.968,0,0,0,1.983.5,6.289,6.289,0,0,0,4.032-1.8c3.457-3.035,3.457-12.76,2.3-30.912a78.064,78.064,0,0,1-.32-8.3c.192-1.734.384-2.974.513-3.9v-.309c1.407-.5,2.688-1.983,4.479-5.08a6.3,6.3,0,0,1,1.152-1.179,10.4,10.4,0,0,0,2.56-2.911C10000.833,15045.337,10001.6,15041.62,9999.938,15039.391Zm-67.308-21.249c.147,0,.289-.062.436-.062a16.364,16.364,0,0,1,15.924,12.081,16.024,16.024,0,0,1,.513,3.963v.311c-.32,7.063-10.83,21.868-16.437,29.115-5.7-7.31-16.448-22.549-16.448-29.425a15.877,15.877,0,0,1,7.033-13.134A16.536,16.536,0,0,1,9932.631,15018.142Zm60.649,32.522a7.815,7.815,0,0,1-1.6,1.734,9.668,9.668,0,0,0-2.049,2.231,19.684,19.684,0,0,1-1.791,2.726,1.98,1.98,0,0,0-1.218,0,2.414,2.414,0,0,0-1.728,2.169c-.063.435-.128.991-.256,1.983-.128.929-.32,2.229-.512,3.9-.191,1.363,0,4.026.32,9.106.319,5.2.768,11.709.641,17.284-.064,8.734-1.408,10.16-1.6,10.283a3.061,3.061,0,0,1-1.024.682c-1.023-.93-1.6-6.071-1.343-8.115a1.97,1.97,0,0,0,0-1.8h0a1.611,1.611,0,0,0-.705-.867,2.008,2.008,0,0,0-.831-.371c-.512-.187-1.151-.373-2.048-.682-1.409-.435-3.265-1.054-5.121-1.673-2.047-.682-7.489-2.416-8.063-2.54-3.2-.806-5.5,1.054-7.232,2.354a5.285,5.285,0,0,1-1.92,1.3h0a10.051,10.051,0,0,1-2.5-2.293c-1.92-2.106-4.288-4.77-8.02-4.832-6.842-.124-10.055,2.293-12.878,4.461a15.778,15.778,0,0,1-7.508,3.655c-.479-.248-1.036-.5-1.658-.743-1.088-.5-2.571-1.054-4.408-1.734-.053-.062-4.827-1.859-6.465-2.417-1.965-1.114-10.317-8.3-12.064-10.16a2.142,2.142,0,0,0-1.657-1.362h0c-5.773-.991-7.93.929-9.8,3.158-1.022,1.239-1.638,1.982-3.673,2.107-1.466.123-4.385-.806-6.042-1.549-.007-.062-.014-.124-.026-.186a2.165,2.165,0,0,0-2.471-1.734c-2.394.371-10.521,2.354-14.893,3.407q-.886.261-1.793.434a13.37,13.37,0,0,1-3.9-1.425,18.714,18.714,0,0,1,1.306-1.8c.429-.558.9-1.177,1.4-1.858a39.277,39.277,0,0,1,3.89-1.053c2.92-.62,4.48-.992,5.377-1.8,3.373-3.036,4.513-4.027,3.731-5.762a2.7,2.7,0,0,0-2.911-1.3c.134-.186.28-.371.428-.558a12.373,12.373,0,0,0,2.375-4.274,4.7,4.7,0,0,0-2.752-6.071,2.54,2.54,0,0,0-1.357-.124l-.768.186c1.383-1.238,3.449-2.973,6.516-5.389a7.546,7.546,0,0,0,1.748-1.488,2.013,2.013,0,0,0,.4-1.238,2.86,2.86,0,0,0-.4-1.425c.428-.186.9-.5,1.407-.743a52.582,52.582,0,0,0,6.163-4.089c.955-.8,2.549-2.106,1.979-3.778-.02-.062-.032-.124-.052-.186,3.693-8.921,20.354-16.354,28.533-20.071,4.781-2.106,6.311-2.788,6.688-4.027a10.676,10.676,0,0,1,1.415-1.858c.576.5.831,1.858,1.017,4.646.058.867.115,1.734.243,2.539a19.619,19.619,0,0,0-9.088,16.479c0,10.221,16.89,31.283,18.817,33.7a2.044,2.044,0,0,0,3.046,0c1.9-2.354,18.178-22.735,18.817-33.143a28.379,28.379,0,0,0,8.9-1.488,23.191,23.191,0,0,1,7.231-1.237,2.2,2.2,0,0,0,2.176-2.106,1.9,1.9,0,0,0-.19-.868,60,60,0,0,1,2.752-10.035c.063,2.788.7,5.451,2.752,6.752,1.6,1.054,3.584,1.054,6.017-.062-.32,1.239-.641,2.54-.9,3.469-1.343,5.2-1.983,8.239-.7,10.16,2.688,4.026,7.681,3.346,11.329,2.85a13.182,13.182,0,0,1,3.647-.248C9996.545,15042.3,9996.545,15044.223,9993.28,15050.664Zm-60.252-5.017a11.56,11.56,0,1,1,11.879-11.585A11.755,11.755,0,0,1,9933.028,15045.647Zm0-19.329a8.043,8.043,0,0,0-7.45,4.782,7.586,7.586,0,0,0,1.731,8.488,8.225,8.225,0,0,0,8.769,1.683,7.773,7.773,0,0,0,4.943-7.209A7.875,7.875,0,0,0,9933.028,15026.318Z" transform="translate(-10028.772 -7617.722)"/>
</svg>
