<svg xmlns="http://www.w3.org/2000/svg" viewBox="124 7368.999 107.292 113.938">
  <defs>
    <style>
      .cls-1 {
        fill: #e6b82e;
        fill-rule: evenodd;
      }
    </style>
  </defs>
  <path id="icon_2" data-name="icon 2" class="cls-1" d="M10583.593,15050.568l-10.2,40.978a13.136,13.136,0,0,0,9.537,15.992q.5.1,1.191.2v.066a2.756,2.756,0,0,0,.729.134h17.086a9.317,9.317,0,0,0,9.141-7.462l.064-.134h30.994l.066.133a9.314,9.314,0,0,0,9.139,7.463h17.087a2.81,2.81,0,0,0,.729-.133h0a13.206,13.206,0,0,0,10.728-16.257l-10.2-41.044a9.428,9.428,0,0,0-8.942-7l-22.848-1.8v-6.663a16.893,16.893,0,0,0,5.7-12.659v-19.057a9.385,9.385,0,0,0-9.339-9.329h-15.23a9.383,9.383,0,0,0-9.337,9.329l0,19.056a16.9,16.9,0,0,0,5.7,12.66v6.663l-.131.066-22.585,1.732A9.428,9.428,0,0,0,10583.593,15050.568Zm-.464,42.311v11.061l-.266-.066a9.6,9.6,0,0,1-5.03-4.132h0a9.45,9.45,0,0,1-1.06-7.328l3.245-13.06h10.662v8.329l-.2-.067a5.78,5.78,0,0,0-1.855-.333A5.557,5.557,0,0,0,10583.129,15092.879Zm24.371,7.662a6.009,6.009,0,0,1-5.563,3.932h-15.166c-.2,0-.2,0-.2-2v-9.595a2.053,2.053,0,1,1,4.105,0v5.729a1.773,1.773,0,0,0,1.788,1.734h15.1Zm-13.311-3.73v-28.852h23.112v9.662a1.732,1.732,0,0,0,.5,1.229,1.7,1.7,0,0,0,1.221.5h15.232a1.71,1.71,0,0,0,1.223-.5,1.73,1.73,0,0,0,.5-1.229v-9.662h23.113v28.852Zm0-32.382v-9.8h23.112v9.795h-23.112Zm38.346,3.531v7.93h-11.723v-7.931h11.723Zm-11.723-3.531v-9.8h11.723v9.795h-11.723Zm15.165,0v-9.8h23.113v9.795h-23.113Zm30.73,40.044h-15.364a6.012,6.012,0,0,1-5.563-3.932l-.066-.2h15.1a1.77,1.77,0,0,0,1.787-1.731v-5.73a2.053,2.053,0,1,1,4.106,0v11.594Zm9.8-12.06a9.809,9.809,0,0,1-6.093,11.461l-.265.066v-11.061a5.559,5.559,0,0,0-5.5-5.6,5.711,5.711,0,0,0-1.854.332l-.2.067v-8.329h10.664Zm-15.895-45.442a5.888,5.888,0,0,1,5.7,4.4l6.094,24.521h-9.8V15052.9a1.786,1.786,0,0,0-1.787-1.8h-30l5.96-5.931h.132Zm-33.973,3.466-7.75-7.8v-5.131l.2.065a16.737,16.737,0,0,0,15.1,0l.2-.065v5.131Zm-13.444-47.108a5.853,5.853,0,0,1,5.826-5.863h15.232a5.855,5.855,0,0,1,5.829,5.863v4.2l-.265-.2a8.842,8.842,0,0,0-5.564-1.933h-15.232a8.964,8.964,0,0,0-5.562,1.932l-.266.2v-4.2Zm26.623,9.729h-26.358l.065-.2a5.771,5.771,0,0,1,5.5-3.932h15.232a5.768,5.768,0,0,1,5.5,3.932Zm-26.623,9.328v-5.863h9.8v7.8a1.759,1.759,0,0,0,1.721,1.731h3.644v-3.466h-1.854v-6.062h13.577v5.863a13.444,13.444,0,1,1-26.888,0Zm-20.4,24.586,23.71-1.8,5.961,5.931h-30a1.773,1.773,0,0,0-1.268.523,1.8,1.8,0,0,0-.521,1.275v22.988h-9.8l6.092-24.454A5.973,5.973,0,0,1,10592.8,15046.971Z" transform="translate(-10448.989 -7625)"/>
</svg>
