<svg xmlns="http://www.w3.org/2000/svg" xmlns:xlink="http://www.w3.org/1999/xlink" viewBox="6564.465 6568.375 85.506 85.017">
  <defs>
    <style>
      .cls-1 {
        fill: none;
      }

      .cls-2 {
        fill: #e6b82d;
      }

      .cls-3 {
        clip-path: url(#clip-path);
      }
    </style>
    <clipPath id="clip-path">
      <path id="Path_117" data-name="Path 117" class="cls-1" d="M0,51.062H85.505V-33.955H0Z" transform="translate(0 33.955)"/>
    </clipPath>
  </defs>
  <g id="Group_162" data-name="Group 162" transform="translate(6564.466 6568.375)">
    <g id="Group_156" data-name="Group 156" transform="translate(0 0.001)">
      <path id="Path_112" data-name="Path 112" class="cls-2" d="M8.966,0-5.894,23.644l-.068.105V85.015H79.543V23.749L64.616,0ZM38.643,3.683H62.565L74.353,22.437H38.643Zm-27.625,0H34.938V22.437H-.772ZM-2.254,26.112H75.838V81.331H-2.254Z" transform="translate(5.962)"/>
    </g>
    <g id="Group_161" data-name="Group 161" class="cls-3" transform="translate(0.001 0)">
      <g id="Group_157" data-name="Group 157" transform="translate(28.298 33.631)">
        <path id="Path_113" data-name="Path 113" class="cls-2" d="M14.471,0H-4.808A4.927,4.927,0,0,0-9.623,5.025a4.916,4.916,0,0,0,4.815,5.013H14.471a4.916,4.916,0,0,0,4.815-5.013A4.927,4.927,0,0,0,14.471,0m0,6.7H-4.808A1.646,1.646,0,0,1-6.416,5.025,1.644,1.644,0,0,1-4.808,3.35H14.471a1.644,1.644,0,0,1,1.607,1.675A1.646,1.646,0,0,1,14.471,6.7" transform="translate(9.623)"/>
      </g>
      <g id="Group_158" data-name="Group 158" transform="translate(27.857 72.925)">
        <path id="Path_114" data-name="Path 114" class="cls-2" d="M16.662,0H-9.032A1.953,1.953,0,0,0-11.08,1.835,1.957,1.957,0,0,0-9.032,3.678H16.662A1.957,1.957,0,0,0,18.71,1.835,1.953,1.953,0,0,0,16.662,0" transform="translate(11.08)"/>
      </g>
      <g id="Group_159" data-name="Group 159" transform="translate(27.858 52.938)">
        <path id="Path_115" data-name="Path 115" class="cls-2" d="M6.978,2.853,2.749-1.356a1.8,1.8,0,0,0-.6-.4,1.818,1.818,0,0,0-1.412,0,1.8,1.8,0,0,0-.606.4L-4.1,2.853a1.832,1.832,0,0,0,0,2.6,1.9,1.9,0,0,0,2.614,0L-.414,4.385v8.18a1.853,1.853,0,0,0,3.706,0V4.385L4.364,5.452a1.9,1.9,0,0,0,2.614,0,1.836,1.836,0,0,0,0-2.6" transform="translate(4.64 1.897)"/>
      </g>
      <g id="Group_160" data-name="Group 160" transform="translate(45.488 52.938)">
        <path id="Path_116" data-name="Path 116" class="cls-2" d="M6.978,2.853,2.749-1.358a1.805,1.805,0,0,0-.6-.4,1.823,1.823,0,0,0-1.41,0,1.806,1.806,0,0,0-.608.4L-4.1,2.853a1.832,1.832,0,0,0,0,2.6,1.9,1.9,0,0,0,2.614,0L-.414,4.385v8.18a1.853,1.853,0,0,0,3.706,0V4.385L4.364,5.452a1.9,1.9,0,0,0,2.614,0,1.832,1.832,0,0,0,0-2.6" transform="translate(4.64 1.897)"/>
      </g>
    </g>
  </g>
</svg>
