<svg xmlns="http://www.w3.org/2000/svg" viewBox="-1752.828 4075.347 113.11 92.3">
  <defs>
    <style>
      .cls-1 {
        fill: #e6b82e;
      }
    </style>
  </defs>
  <g id="icon_3" data-name="icon 3" transform="translate(-1752.828 4075.347)">
    <path id="Path_18" data-name="Path 18" class="cls-1" d="M154.121,146.622a2.662,2.662,0,1,0-2.721-2.661A2.7,2.7,0,0,0,154.121,146.622Z" transform="translate(-106.132 -99.052)"/>
    <path id="Path_19" data-name="Path 19" class="cls-1" d="M204.421,146.622a2.662,2.662,0,1,0-2.721-2.661A2.7,2.7,0,0,0,204.421,146.622Z" transform="translate(-141.392 -99.052)"/>
    <path id="Path_20" data-name="Path 20" class="cls-1" d="M162.978,175.4a1.588,1.588,0,0,0,0,2.272,9.424,9.424,0,0,0,6.578,2.661,9.3,9.3,0,0,0,6.578-2.661,1.617,1.617,0,0,0-2.3-2.272h0a6.157,6.157,0,0,1-8.551,0A1.7,1.7,0,0,0,162.978,175.4Z" transform="translate(-113.913 -122.623)"/>
    <path id="Path_21" data-name="Path 21" class="cls-1" d="M0,0V11.422H8.372V92.3h94.483V11.422H113.11V0ZM16.206,88.712H11.96V11.422h4.246Zm16.445,0H23.74c.419-8.043,3.558-13.963,8.91-17.162Zm0-52.295a22.415,22.415,0,0,0-.6,5.143v.6a6.952,6.952,0,0,0,.12,13.634,18.176,18.176,0,0,0,.478,2.6v9.06c-7.5,3.528-12.02,11-12.5,21.259h-.359V11.422H32.65Zm-.6,9.119v6.877a3.738,3.738,0,0,1,0-6.877ZM40.484,23.98v64.7H36.238V11.422h4.246Zm26.73,64.733H44.072V68.859c.867.12,2.362.3,3.977.478.568.09,1.136.149,1.734.209,2.422.269,4.844.508,5.86.508A46.086,46.086,0,0,0,67.214,68.8V88.712Zm0-23.621c-.777.269-4.664,1.405-11.571,1.405-1.674,0-8.671-.867-11.571-1.226h0V25.325a20.079,20.079,0,0,1,5.651-2.691c6.189.12,9.478,4.455,9.478,7.535a4.212,4.212,0,0,1-4.276,4.156,3.07,3.07,0,0,1-3.11-3.02,2.132,2.132,0,0,1,2.153-2.093,1.615,1.615,0,1,0,0-3.229,5.348,5.348,0,0,0-5.412,5.292,6.3,6.3,0,0,0,6.369,6.219,7.467,7.467,0,0,0,7.535-7.355A10.281,10.281,0,0,0,59.022,22.9a11.225,11.225,0,0,0-1.316-1.046A20.717,20.717,0,0,1,67.185,25.3v39.8Zm0-43.534a24.1,24.1,0,0,0-23.142,0V11.422H67.214V21.558Zm7.864,37.2c0,.03-.03.06-.03.12v29.84H70.8V11.392h4.246V35.7c0,.06.03.09.03.149Zm3.528,29.959V71.221c5.352,3.229,8.492,9.269,8.91,17.491Zm12.827,0H91.1c-.448-10.435-4.993-18.03-12.5-21.558V58.424a16.759,16.759,0,0,0,.478-2.6,6.952,6.952,0,0,0,.12-13.634v-.6a22.415,22.415,0,0,0-.6-5.143V11.422H91.433Zm-12.2-36.3V45.537a3.8,3.8,0,0,1,2.272,3.438A3.855,3.855,0,0,1,79.234,52.414Zm20.033,36.3H95.021V11.422h4.246ZM109.493,7.834H3.588V3.588h105.9Z"/>
  </g>
</svg>
