<svg xmlns="http://www.w3.org/2000/svg" viewBox="-2651.758 4075.347 120 91.699">
  <defs>
    <style>
      .cls-1 {
        fill: #e6b82e;
      }
    </style>
  </defs>
  <g id="Icon_1" data-name="Icon 1" transform="translate(-2651.758 4075.347)">
    <rect id="Rectangle_38" data-name="Rectangle 38" class="cls-1" width="22.266" height="3.691" transform="translate(0 88.008)"/>
    <rect id="Rectangle_39" data-name="Rectangle 39" class="cls-1" width="22.266" height="3.691" transform="translate(97.734 88.008)"/>
    <path id="Path_14" data-name="Path 14" class="cls-1" d="M22.119,82.471H20.273V78.779H99.551v3.691H97.705v3.691h22.119V82.471h-1.846V16.084h1.846V12.422h-5.039a7.676,7.676,0,1,0-12.07,0H97.676v3.691h1.846v5.1H20.273V16.084h1.846V12.422H17.08a7.661,7.661,0,1,0-12.041,0H0v3.691H1.846V82.5H0v3.691H22.119Zm86.66-79.248a4.453,4.453,0,1,1-4.453,4.453A4.451,4.451,0,0,1,108.779,3.223Zm5.537,79.248H103.242V71.4h11.074Zm0-14.736H103.242V16.084h11.074ZM94.189,24.9H99.58V75.117H94.189Zm-12.92,0H90.5V75.117H81.27Zm-12.891,0h9.229V75.117H68.379Zm-12.92,0h9.229V75.117H55.459Zm-12.891,0H51.8V75.117H42.568Zm-12.92,0h9.229V75.117H29.648Zm-9.375,0h5.684V75.117H20.273Zm-9.2-21.68A4.453,4.453,0,1,1,6.621,7.676,4.451,4.451,0,0,1,11.074,3.223Zm5.508,79.248H5.537V71.4H16.611V82.471Zm0-14.736H5.537V16.084H16.611v51.65Z"/>
  </g>
</svg>
