<svg xmlns="http://www.w3.org/2000/svg" viewBox="-2204.1 4068.678 120 105.638">
  <defs>
    <style>
      .cls-1 {
        fill: #e6b82e;
      }
    </style>
  </defs>
  <g id="icon_2" data-name="icon 2" transform="translate(-2204.1 4068.678)">
    <path id="Path_15" data-name="Path 15" class="cls-1" d="M46.877,67.868v4.688H4.688a4.677,4.677,0,0,1,4.688-4.688ZM10.3,77.243H51.535V45.653H91.366V14.063h23.916v4.509H104.563c-.03,0-.03,0-.06.03-2.329,2.06-.9,4.658,1.164,4.658h9.614V48.967L49.744,100.95H10.3V86.35H21.02c.03,0,.03,0,.06-.03,2.329-2.06.9-4.658-1.164-4.658H10.3V77.243ZM115.282,9.375H84.349a4.677,4.677,0,0,1,4.688-4.688h26.245V9.375Zm-28.574,26.9v4.688H44.519a4.677,4.677,0,0,1,4.688-4.688ZM0,77.243H5.613v28.4H50.55a2.353,2.353,0,0,0,1.463-.508L119.1,51.953a2.35,2.35,0,0,0,.9-1.821V0H89.993A10.334,10.334,0,0,0,79.662,10.331v3.732h7.017V31.59H49.266a9.436,9.436,0,0,0-9.435,9.435v4.628h7.047V63.18H10.3A10.3,10.3,0,0,0,0,73.481Z"/>
    <path id="Path_16" data-name="Path 16" class="cls-1" d="M83.891,278.188h-.03a2.312,2.312,0,0,1-2.239-1.612,2.335,2.335,0,0,1,2.239-3.075h.03a2.312,2.312,0,0,1,2.239,1.612,2.36,2.36,0,0,1-2.239,3.075Z" transform="translate(-57.168 -191.838)"/>
    <path id="Path_17" data-name="Path 17" class="cls-1" d="M325.689,62.2h.03a2.312,2.312,0,0,1,2.239,1.612,2.335,2.335,0,0,1-2.239,3.075h-.03a2.312,2.312,0,0,1-2.239-1.612,2.37,2.37,0,0,1,2.239-3.075Z" transform="translate(-226.798 -43.628)"/>
  </g>
</svg>
