<svg xmlns="http://www.w3.org/2000/svg" xmlns:xlink="http://www.w3.org/1999/xlink" viewBox="-1880 12273.316 28.641 21.48">
  <defs>
    <style>
      .cls-1 {
        fill: none;
      }

      .cls-2 {
        clip-path: url(#clip-path);
      }

      .cls-3 {
        fill: #44443f;
      }
    </style>
    <clipPath id="clip-path">
      <path id="Path_98" data-name="Path 98" class="cls-1" d="M0,11.668H28.641V-9.812H0Z" transform="translate(0 9.812)"/>
    </clipPath>
  </defs>
  <g id="_3_icon_mail" data-name="3 icon mail" transform="translate(-1880 12273.316)">
    <g id="Group_107" data-name="Group 107" class="cls-2">
      <g id="Group_106" data-name="Group 106" transform="translate(-0.001 0)">
        <path id="Path_97" data-name="Path 97" class="cls-3" d="M15.254,3.859a.277.277,0,0,1,.363-.057.363.363,0,0,1,.195.337v11.41a2.672,2.672,0,0,1-2.684,2.686H-10.14a2.589,2.589,0,0,1-1.9-.784,2.589,2.589,0,0,1-.784-1.9V4.139a.307.307,0,0,1,.2-.309.361.361,0,0,1,.363.028q1.845,1.4,8.614,6.32l.558.5A22.654,22.654,0,0,0-.968,12.139a5.255,5.255,0,0,0,2.461.727,4.98,4.98,0,0,0,2.463-.784,15.586,15.586,0,0,0,2.126-1.454l.558-.447q6.6-4.758,8.614-6.322M1.493,11.075a3.582,3.582,0,0,0,1.791-.67A13.523,13.523,0,0,0,5.018,9.172l.56-.39q7.047-5.09,9.453-6.992l.28-.223A1.279,1.279,0,0,0,15.812.5V-.561a2.586,2.586,0,0,0-.782-1.9,2.589,2.589,0,0,0-1.9-.784H-10.14a2.589,2.589,0,0,0-1.9.784,2.588,2.588,0,0,0-.784,1.9V.5a1.274,1.274,0,0,0,.5,1.062l.392.28q2.463,1.9,9.341,6.938l.56.39A13.432,13.432,0,0,0-.3,10.4a3.575,3.575,0,0,0,1.789.67" transform="translate(12.827 3.245)"/>
      </g>
    </g>
  </g>
</svg>
