<svg xmlns="http://www.w3.org/2000/svg" xmlns:xlink="http://www.w3.org/1999/xlink" viewBox="-1880 12199.771 27.773 37.026">
  <defs>
    <style>
      .cls-1 {
        fill: none;
      }

      .cls-2 {
        clip-path: url(#clip-path);
      }

      .cls-3 {
        fill: #44443f;
      }
    </style>
    <clipPath id="clip-path">
      <path id="Path_100" data-name="Path 100" class="cls-1" d="M0,22.854H27.773V-14.173H0Z" transform="translate(0 14.173)"/>
    </clipPath>
  </defs>
  <g id="_2_icon_map" data-name="2 icon map" transform="translate(-1880 12199.771)">
    <g id="Group_110" data-name="Group 110" class="cls-2" transform="translate(0 0)">
      <g id="Group_109" data-name="Group 109" transform="translate(0 -0.001)">
        <path id="Path_99" data-name="Path 99" class="cls-3" d="M7.678,22.407Q5.8,19.66,2.837,15.466-.78,10.258-1.933,8.449A20.25,20.25,0,0,1-4.182,4.075,13.19,13.19,0,0,1-4.76-.011,13.375,13.375,0,0,1-2.879-6.952a14.134,14.134,0,0,1,5.06-5.063A13.438,13.438,0,0,1,9.123-13.9a13.441,13.441,0,0,1,6.944,1.881,14.134,14.134,0,0,1,5.06,5.063A13.375,13.375,0,0,1,23.008-.011a13.19,13.19,0,0,1-.577,4.086,20.537,20.537,0,0,1-2.242,4.376q-1.156,1.807-4.77,7.014l-4.844,6.941a1.655,1.655,0,0,1-1.453.724,1.657,1.657,0,0,1-1.445-.724M9.123,5.776a5.579,5.579,0,0,0,4.086-1.7,5.569,5.569,0,0,0,1.7-4.086,5.569,5.569,0,0,0-1.7-4.086,5.567,5.567,0,0,0-4.086-1.7A5.565,5.565,0,0,0,5.04-4.1a5.569,5.569,0,0,0-1.7,4.086,5.569,5.569,0,0,0,1.7,4.086,5.578,5.578,0,0,0,4.083,1.7" transform="translate(4.762 13.896)"/>
      </g>
    </g>
  </g>
</svg>
