<svg xmlns="http://www.w3.org/2000/svg" viewBox="-1882 12430.024 36 36">
  <defs>
    <style>
      .cls-1 {
        fill: #e5b72d;
      }

      .cls-2 {
        fill: #fff;
      }
    </style>
  </defs>
  <g id="_5_icon_ok" data-name="5 icon ok" transform="translate(-3255 11726)">
    <g id="Group_119" data-name="Group 119" transform="translate(1373 704.025)">
      <path id="Path_107" data-name="Path 107" class="cls-1" d="M9.5,0a18,18,0,1,1-18,18A18,18,0,0,1,9.5,0" transform="translate(8.504 0)"/>
    </g>
    <g id="Group_120" data-name="Group 120" transform="translate(1382.739 713.925)">
      <path id="Path_108" data-name="Path 108" class="cls-2" d="M3.576,2.817a1.407,1.407,0,0,1,.442-1.031,1.422,1.422,0,0,1,2.013-.049.528.528,0,0,1,.049.049,1.433,1.433,0,0,1,.442,1.05A1.369,1.369,0,0,1,6.08,3.867a1.465,1.465,0,0,1-2.062,0,1.4,1.4,0,0,1-.442-1.05M13.3-.755V12.209a1.761,1.761,0,0,1-1.753,1.77H-1.432a1.708,1.708,0,0,1-1.253-.516A1.708,1.708,0,0,1-3.2,12.209V-.755a1.707,1.707,0,0,1,.516-1.251,1.7,1.7,0,0,1,1.253-.516H11.532a1.7,1.7,0,0,1,1.251.516A1.707,1.707,0,0,1,13.3-.755M2.066,2.817A2.878,2.878,0,0,0,2.93,4.934,2.875,2.875,0,0,0,5.047,5.8a2.876,2.876,0,0,0,2.119-.866,2.852,2.852,0,0,0,.864-2.1A2.914,2.914,0,0,0,7.165.718,2.843,2.843,0,0,0,5.047-.165,2.873,2.873,0,0,0,2.93.7a2.874,2.874,0,0,0-.864,2.119M8.474,6.168A.725.725,0,0,0,8,5.783a.9.9,0,0,0-.773.239l-.258.184a5.229,5.229,0,0,1-.737.332,4.914,4.914,0,0,1-1.179.146,3.776,3.776,0,0,1-1.583-.332,1.6,1.6,0,0,1-.588-.33A.909.909,0,0,0,2.1,5.783a.725.725,0,0,0-.478.385.608.608,0,0,0,0,.7,2.493,2.493,0,0,0,.773.66,4.8,4.8,0,0,0,2.1.627L2.251,10.368a.668.668,0,0,0-.167.7.826.826,0,0,0,.516.514.594.594,0,0,0,.682-.146l1.767-1.77,1.767,1.77a.594.594,0,0,0,.682.146.887.887,0,0,0,.536-.514.611.611,0,0,0-.186-.7l-2.21-2.21A4.989,4.989,0,0,0,7.7,7.529a2.472,2.472,0,0,0,.773-.663A.608.608,0,0,0,8.474,6.168Z" transform="translate(3.202 2.523)"/>
    </g>
  </g>
</svg>
