<svg xmlns="http://www.w3.org/2000/svg" xmlns:xlink="http://www.w3.org/1999/xlink" viewBox="-1882 12137.073 31.245 31.245">
  <defs>
    <style>
      .cls-1 {
        fill: none;
      }

      .cls-2 {
        clip-path: url(#clip-path);
      }

      .cls-3 {
        fill: #44443f;
      }
    </style>
    <clipPath id="clip-path">
      <path id="Path_102" data-name="Path 102" class="cls-1" d="M0,18.172H31.245V-13.073H0Z" transform="translate(0 13.073)"/>
    </clipPath>
  </defs>
  <g id="_1_icon_phone" data-name="1 icon phone" transform="translate(-1882 12137.073)">
    <g id="Group_113" data-name="Group 113" class="cls-2">
      <g id="Group_112" data-name="Group 112" transform="translate(0 0)">
        <path id="Path_101" data-name="Path 101" class="cls-3" d="M17.5.875,11.147-.59a1.375,1.375,0,0,0-.978.122A1.333,1.333,0,0,0,9.5.2L6.565,7.044a1.527,1.527,0,0,0-.06.946,1.456,1.456,0,0,0,.488.762l3.664,3.054a22.458,22.458,0,0,1-4.429,6.35A21.431,21.431,0,0,1-.155,22.615l-2.992-3.664a1.231,1.231,0,0,0-.793-.521,1.568,1.568,0,0,0-.918.093l-6.838,2.93a1.318,1.318,0,0,0-.729.674,1.375,1.375,0,0,0-.122.978l1.465,6.35a1.153,1.153,0,0,0,.488.856,1.548,1.548,0,0,0,.918.3,27.869,27.869,0,0,0,14.29-3.848,28.463,28.463,0,0,0,10.2-10.2,27.89,27.89,0,0,0,3.846-14.29,1.543,1.543,0,0,0-.3-.918A1.153,1.153,0,0,0,17.5.875" transform="translate(12.588 0.63)"/>
      </g>
    </g>
  </g>
</svg>
