<svg xmlns="http://www.w3.org/2000/svg" viewBox="-1882 12364.403 36 36">
  <defs>
    <style>
      .cls-1 {
        fill: #e5b72d;
      }

      .cls-2 {
        fill: #fff;
      }
    </style>
  </defs>
  <g id="_4_icon_vk" data-name="4 icon vk" transform="translate(-3255 11692)">
    <g id="Group_115" data-name="Group 115" transform="translate(1373 672.403)">
      <path id="Path_103" data-name="Path 103" class="cls-1" d="M9.5,0a18,18,0,1,1-18,18A18,18,0,0,1,9.5,0" transform="translate(8.504 0)"/>
    </g>
    <g id="Group_116" data-name="Group 116" transform="translate(1380.063 685.125)">
      <path id="Path_104" data-name="Path 104" class="cls-2" d="M10.606.445Q10.835-.4,9.918-.4H7.664a.963.963,0,0,0-.957.648l-.381.766a20.107,20.107,0,0,1-.955,1.835A13.631,13.631,0,0,1,3.917,4.841a2.976,2.976,0,0,1-.612.552.852.852,0,0,1-.4.135.347.347,0,0,1-.288-.155.83.83,0,0,1-.114-.5V.445A1.168,1.168,0,0,0,2.368-.2a.543.543,0,0,0-.478-.19H-1.662a.589.589,0,0,0-.4.152.471.471,0,0,0-.171.362.938.938,0,0,0,.267.536,2.524,2.524,0,0,1,.383.591,2.719,2.719,0,0,1,.267,1.071V5.643a1.567,1.567,0,0,1-.093.669.344.344,0,0,1-.324.171c-.256,0-.612-.279-1.071-.84A12.557,12.557,0,0,1-4.185,3.465,22.182,22.182,0,0,1-5.485.483,1.577,1.577,0,0,0-5.847-.2.906.906,0,0,0-6.478-.4H-8.734c-.508,0-.764.216-.764.648A5.883,5.883,0,0,0-9.229,1.59,22.466,22.466,0,0,0-8.122,4.151a23,23,0,0,0,2.18,3.556,10.106,10.106,0,0,0,3.209,3.056A7.159,7.159,0,0,0,.9,11.835a2.769,2.769,0,0,0,1.376-.229.674.674,0,0,0,.229-.648V9.964a11.07,11.07,0,0,1,.038-1.185.678.678,0,0,1,.133-.5.691.691,0,0,1,.44-.114q.727,0,2.254,1.452c.307.307.656.682,1.052,1.128a5.792,5.792,0,0,0,.821.821,1.227,1.227,0,0,0,.764.269h2.256a.833.833,0,0,0,.669-.25.766.766,0,0,0,.1-.707q-.346-1.07-3.1-3.9L7.588,6.6a.778.778,0,0,1-.231-.459,1.108,1.108,0,0,1,.231-.533q.038-.038.726-1.033.8-1.26,1.376-2.216A7.4,7.4,0,0,0,10.606.445" transform="translate(9.498 0.398)"/>
    </g>
  </g>
</svg>
