<svg xmlns="http://www.w3.org/2000/svg" xmlns:xlink="http://www.w3.org/1999/xlink" viewBox="-2025.289 10758.383 207.289 134.296">
  <defs>
    <style>
      .cls-1 {
        fill: rgba(230,184,46,1);
      }

      .cls-2 {
        clip-path: url(#clip-path);
      }

      .cls-3 {
        filter: url(#Rectangle_48);
      }
    </style>
    <filter id="Rectangle_48" x="-2040.289" y="10743.383" width="243.289" height="170.296" filterUnits="userSpaceOnUse">
      <feOffset dx="3" dy="3" input="SourceAlpha"/>
      <feGaussianBlur stdDeviation="6" result="blur"/>
      <feFlood flood-opacity="0.102"/>
      <feComposite operator="in" in2="blur"/>
      <feComposite in="SourceGraphic"/>
    </filter>
    <clipPath id="clip-path">
      <g class="cls-3" transform="matrix(1, 0, 0, 1, 0, 0)">
        <rect id="Rectangle_48-2" data-name="Rectangle 48" class="cls-1" width="207.289" height="134.296" transform="translate(304 10440)"/>
      </g>
    </clipPath>
  </defs>
  <g id="icon_1" data-name="icon 1" class="cls-2" transform="translate(-2329.289 318.383)">
    <g id="image" transform="translate(333.036 10440)">
      <path id="Path_53" data-name="Path 53" class="cls-1" d="M144.243,132.037V49.709a2.486,2.486,0,0,0-2.487-2.487H2.487A2.486,2.486,0,0,0,0,49.709V159.135a2.486,2.486,0,0,0,2.487,2.487H87.051a32.312,32.312,0,1,0,57.192-29.585ZM85.449,156.648H4.974V52.2h134.3v73.669c-.423-.408-.88-.773-1.323-1.156-.219-.187-.425-.385-.649-.567-.584-.477-1.194-.92-1.811-1.355-.229-.162-.45-.336-.684-.492-.609-.405-1.239-.776-1.875-1.139-.271-.157-.532-.323-.808-.47-.191-.1-.383-.206-.577-.306a2.458,2.458,0,0,0-.542-2.87L101.157,90.152a2.441,2.441,0,0,0-1.791-.652,2.491,2.491,0,0,0-1.726.808L73.283,116.986l-11.8-11.8a2.492,2.492,0,0,0-3.4-.109l-42.32,37.264a2.487,2.487,0,0,0,3.285,3.735l40.57-35.718L85.24,135.982a2.459,2.459,0,0,0,1.83.714,31.858,31.858,0,0,0-2.3,16.113c.022.187.06.371.085.557q.209,1.6.565,3.139C85.434,156.551,85.437,156.6,85.449,156.648ZM121.311,117.2c-.4-.055-.8-.137-1.206-.177-1.062-.1-2.136-.162-3.218-.162a32.319,32.319,0,0,0-27.861,16.009,2.508,2.508,0,0,0-.266-.4L76.8,120.508l22.833-25,24.109,22.1c-.167-.037-.331-.08-.5-.112C122.609,117.364,121.958,117.285,121.311,117.2Zm-4.424,59.349a27.382,27.382,0,0,1-25.782-18.3c-.234-.664-.438-1.333-.619-2l-.112-.43c-.149-.592-.279-1.184-.388-1.781-.06-.331-.1-.664-.152-1-.065-.448-.134-.9-.177-1.343-.075-.826-.127-1.659-.127-2.5a27.235,27.235,0,0,1,30.5-27.16c.316.037.622.1.933.142.724.109,1.44.239,2.146.4.351.082.7.174,1.047.269.667.184,1.321.4,1.97.629.333.119.669.234.995.366.734.3,1.45.634,2.154.992.206.1.423.191.627.3a27.106,27.106,0,0,1,2.467,1.527c.326.224.634.473.95.711.495.373.982.759,1.452,1.166.316.274.624.557.928.843.48.458.943.938,1.39,1.43.234.256.475.5.7.768A28.108,28.108,0,0,1,139.628,134a27.34,27.34,0,0,1-22.741,42.542Z" transform="translate(0 -47.222)"/>
      <path id="Path_54" data-name="Path 54" class="cls-1" d="M661.96,597.329H649.525V584.894a2.487,2.487,0,0,0-4.974,0v12.435H632.117a2.487,2.487,0,0,0,0,4.974h12.435v12.435a2.487,2.487,0,1,0,4.974,0V602.3H661.96a2.487,2.487,0,0,0,0-4.974Z" transform="translate(-530.152 -497.851)"/>
      <path id="Path_55" data-name="Path 55" class="cls-1" d="M178.041,248.07a13.85,13.85,0,1,0-13.85-13.85A13.864,13.864,0,0,0,178.041,248.07Zm0-22.726a8.876,8.876,0,1,1-8.876,8.878A8.887,8.887,0,0,1,178.041,225.344Z" transform="translate(-138.25 -193.014)"/>
    </g>
  </g>
</svg>
