<svg xmlns="http://www.w3.org/2000/svg" viewBox="-3679.039 -20189.164 54.078 54.078">
  <defs>
    <style>
      .cls-1 {
        fill: #242424;
      }
    </style>
  </defs>
  <path id="Icon_WhatsApp" data-name="Icon WhatsApp" class="cls-1" d="M16.678-46.591a28.128,28.128,0,0,0-8.751-5.794,26.1,26.1,0,0,0-10.2-2.052,25.958,25.958,0,0,0-13.4,3.621,27.115,27.115,0,0,0-9.778,9.778,25.958,25.958,0,0,0-3.621,13.4,25.958,25.958,0,0,0,3.621,13.4L-29.312-.359-15.069-4.1A26.087,26.087,0,0,0-2.273-.842h0A26.279,26.279,0,0,0,11.186-4.464a27.447,27.447,0,0,0,9.9-9.778,25.634,25.634,0,0,0,3.682-13.4,25.453,25.453,0,0,0-2.112-10.2A27.991,27.991,0,0,0,16.678-46.591ZM-2.273-5.308A21.523,21.523,0,0,1-13.62-8.447l-.845-.483-8.45,2.173,2.293-8.208-.483-.845a21.413,21.413,0,0,1-3.5-11.83,21.632,21.632,0,0,1,3.018-11.166,22.6,22.6,0,0,1,8.148-8.148A21.632,21.632,0,0,1-2.273-49.971a21.85,21.85,0,0,1,8.51,1.69,22.367,22.367,0,0,1,7.243,4.889,23.875,23.875,0,0,1,5.009,7.3A20.73,20.73,0,0,1,20.3-27.64a21.309,21.309,0,0,1-3.078,11.166A22.928,22.928,0,0,1,8.953-8.326,21.953,21.953,0,0,1-2.273-5.308ZM9.918-22.087Q6.3-23.9,5.331-24.26a3.547,3.547,0,0,0-.845-.121q-.362,0-.6.483-.6.845-2.173,2.656-.483.6-1.449.121a30.928,30.928,0,0,1-5.07-3.018,15.614,15.614,0,0,1-3.983-4.949q-.362-.362-.241-.664a2.7,2.7,0,0,1,.6-.785A8.313,8.313,0,0,0-6.86-32.71a1.331,1.331,0,0,0-.121-1.207l-2.052-4.949a1.656,1.656,0,0,0-.543-.905,1.51,1.51,0,0,0-.785-.181H-11.81a2.538,2.538,0,0,0-1.811.845l-.121.121a7.632,7.632,0,0,0-2.173,5.432,12.194,12.194,0,0,0,2.656,6.88l.241.241q5.07,7.243,11.226,9.9a25.069,25.069,0,0,0,4.828,1.69,11.056,11.056,0,0,0,3.259,0,6.1,6.1,0,0,0,2.6-1.147,5.034,5.034,0,0,0,1.931-2.052,6.253,6.253,0,0,0,.483-1.992,3.1,3.1,0,0,0-.06-1.207,2.141,2.141,0,0,0-.966-.6Z" transform="translate(-3649.727 -20134.727)"/>
</svg>
